<svg xmlns="http://www.w3.org/2000/svg" width="13.098" height="18.409" viewBox="0 0 13.098 18.409">
  <g id="Groupe_3209" data-name="Groupe 3209" transform="translate(-193 -4810)">
    <g id="Union_18" data-name="Union 18" transform="translate(193 4810)" fill="none" stroke-linecap="round" stroke-linejoin="round">
      <path d="M4.447,14.845a1,1,0,0,1-1-1V12.058A6.392,6.392,0,0,1,0,6.411,6.481,6.481,0,0,1,6.549,0,6.481,6.481,0,0,1,13.1,6.411a6.393,6.393,0,0,1-3.447,5.647v1.787a1,1,0,0,1-1,1Z" stroke="none"/>
      <path d="M 7.650700092315674 12.84549999237061 L 7.650700092315674 12.05811977386475 C 7.650700092315674 11.3162202835083 8.061380386352539 10.63527965545654 8.71757984161377 10.28913974761963 C 10.18568992614746 9.51471996307373 11.09770011901855 8.028590202331543 11.09770011901855 6.410699844360352 C 11.09770011901855 3.978630065917969 9.057299613952637 2 6.549300193786621 2 C 4.040810108184814 2 2 3.978630065917969 2 6.410699844360352 C 2 8.028610229492188 2.911970138549805 9.514659881591797 4.380020141601562 10.2889404296875 C 5.036280155181885 10.63506031036377 5.447000026702881 11.31602954864502 5.447000026702881 12.05797004699707 L 5.447000026702881 12.84549999237061 L 7.650700092315674 12.84549999237061 M 8.650799751281738 14.84549999237061 L 4.446899890899658 14.84549999237061 C 3.894299983978271 14.84549999237061 3.447000026702881 14.39729976654053 3.447000026702881 13.84560012817383 L 3.447000026702881 12.05797004699707 C 1.394700050354004 10.97554969787598 5.95092757293969e-08 8.852640151977539 5.95092757293969e-08 6.410699844360352 C 5.95092757293969e-08 2.870100021362305 2.932199954986572 -3.814697890902607e-09 6.549300193786621 -3.814697890902607e-09 C 10.16549968719482 -3.814697890902607e-09 13.09770011901855 2.870100021362305 13.09770011901855 6.410699844360352 C 13.09770011901855 8.852640151977539 11.70271015167236 10.97570037841797 9.650699615478516 12.05811977386475 L 9.650699615478516 13.84560012817383 C 9.650699615478516 14.39729976654053 9.203399658203125 14.84549999237061 8.650799751281738 14.84549999237061 Z" stroke="none" fill="#fff"/>
    </g>
    <line id="Ligne_3197" data-name="Ligne 3197" x2="4.779" transform="translate(197.096 4827.409)" fill="none" stroke="#fff" stroke-linecap="round" stroke-width="2"/>
  </g>
</svg>
